# xmcd
#
# Track frame offsets:
#	150
#	12333
#	25164
#	34149
#	45865
#	59114
#	68667
#	79791
#	86777
#	104139
#	113187
#	124022
#	134644
#
# Disc length: 1968 seconds
# Revision: 0
# Processed by: cddbd v1.5.2PL0 Copyright (c) Steve Scherf et al.
# Submitted via: dBpowerAMP V12.0
#
DISCID=b407ae0d
DTITLE=Jim Reeves - The Unreleased Hits Of Jim Reeves
DYEAR=2000
DGENRE=Country
TTITLE0=Just Out Of Reach
TTITLE1=I Love You Because
TTITLE2=Send Me Back My Love
TTITLE3=Before You Came Along
TTITLE4=Ballad Of '96
TTITLE5=Ramona
TTITLE6=The Image Of Me
TTITLE7=Sand In My Shoes
TTITLE8=Please Forgive
TTITLE9=Why Do I Love You (Melody Of Love)
TTITLE10=Two Shadows On Your Window
TTITLE11=It's Only A Paper Moon
TTITLE12=Danny Boy
EXTD=
EXTT0=
EXTT1=
EXTT2=
EXTT3=
EXTT4=
EXTT5=
EXTT6=
EXTT7=
EXTT8=
EXTT9=
EXTT10=
EXTT11=
EXTT12=
PLAYORDER=
